<?xml version="1.0" encoding="UTF-8" standalone="no"?>
<!-- Created with Inkscape (http://www.inkscape.org/) -->

<svg
   version="1.1"
   id="svg4668"
   xml:space="preserve"
   width="682.66669"
   height="682.66669"
   viewBox="0 0 682.66669 682.66669"
   xmlns="http://www.w3.org/2000/svg"
   xmlns:svg="http://www.w3.org/2000/svg"><defs
     id="defs4672"><clipPath
       clipPathUnits="userSpaceOnUse"
       id="clipPath4682"><path
         d="M 0,512 H 512 V 0 H 0 Z"
         id="path4680" /></clipPath></defs><g
     id="g4674"
     transform="matrix(1.3333333,0,0,-1.3333333,0,682.66667)"><g
       id="g4676"><g
         id="g4678"
         clip-path="url(#clipPath4682)"><g
           id="g4684"
           transform="translate(428.873,504.4985)"><path
             d="m 0,0 h -73.546 l -5.411,-4.82 h -46 L -129.875,0 h -73.547 c -7.746,0 -14.086,-6.338 -14.086,-14.085 v -203.422 c 0,-7.747 6.34,-14.086 14.086,-14.086 H 0 c 7.747,0 14.086,6.339 14.086,14.086 V -14.085 C 14.086,-6.338 7.747,0 0,0"
             style="fill:#fbc481;fill-opacity:1;fill-rule:nonzero;stroke:none"
             id="path4686" /></g><g
           id="g4688"
           transform="translate(261.5185,286.9917)"><path
             d="m 0,0 v 203.421 c 0,7.748 6.339,14.086 14.086,14.086 h -50.153 c -7.746,0 -14.086,-6.338 -14.086,-14.086 V 0 c 0,-7.748 6.34,-14.086 14.086,-14.086 H 14.086 C 6.339,-14.086 0,-7.748 0,0"
             style="fill:#dd9973;fill-opacity:1;fill-rule:nonzero;stroke:none"
             id="path4690" /></g><g
           id="g4692"
           transform="translate(298.998,504.4985)"><path
             d="m 0,0 v -89.18 c 0,-3.916 4.348,-6.267 7.624,-4.123 l 17.843,11.676 c 1.638,1.073 3.757,1.073 5.395,0 l 17.842,-11.676 c 3.276,-2.144 7.625,0.207 7.625,4.123 l 0,89.18 z"
             style="fill:#d6865f;fill-opacity:1;fill-rule:nonzero;stroke:none"
             id="path4694" /></g><g
           id="g4696"
           transform="translate(327.1621,504.4985)"><path
             d="m 0,0 h -28.164 v -89.18 c 0,-3.916 4.348,-6.267 7.624,-4.122 l 17.843,11.675 c 0.819,0.537 1.758,0.805 2.697,0.805 z"
             style="fill:#b97359;fill-opacity:1;fill-rule:nonzero;stroke:none"
             id="path4698" /></g><g
           id="g4700"
           transform="translate(304.6045,377.6226)"><path
             d="m 0,0 h -50.885 c -7.208,0 -13.052,-5.844 -13.052,-13.053 v -51.822 c 0,-7.208 5.844,-13.052 13.052,-13.052 H 0 c 7.209,0 13.053,5.844 13.053,13.052 v 51.822 C 13.053,-5.844 7.209,0 0,0"
             style="fill:#ffeddc;fill-opacity:1;fill-rule:nonzero;stroke:none"
             id="path4702" /></g><g
           id="g4704"
           transform="translate(279.1621,312.7476)"><path
             d="m 0,0 v 51.822 c 0,7.209 5.844,13.053 13.053,13.053 h -38.495 c -7.208,0 -13.052,-5.844 -13.052,-13.053 V 0 c 0,-7.208 5.844,-13.052 13.052,-13.052 H 13.053 C 5.844,-13.052 0,-7.208 0,0"
             style="fill:#fcd5ac;fill-opacity:1;fill-rule:nonzero;stroke:none"
             id="path4706" /></g><g
           id="g4708"
           transform="translate(456.4785,237.624)"><path
             d="m 0,0 v 0 c -11.189,8.002 -26.649,5.277 -34.529,-6.085 l -45.189,-65.161 c -0.587,-0.844 -1.269,-1.599 -2.011,-2.284 l -1.434,-1.188 2.622,-2.622 h 12.145 l 76.667,49.478 2.212,4.671 C 10.695,-14.75 7.045,-5.037 0,0"
             style="fill:#ffcebe;fill-opacity:1;fill-rule:nonzero;stroke:none"
             id="path4710" /></g><g
           id="g4712"
           transform="translate(450.2822,231.5386)"><path
             d="M 0,0 C 1.712,2.468 3.782,4.528 6.088,6.159 -5.094,14.067 -20.478,11.326 -28.333,0 l -45.188,-65.16 c -0.587,-0.845 -1.27,-1.599 -2.012,-2.284 l -1.434,-1.189 2.622,-2.622 h 12.146 l 23.141,14.935 z"
             style="fill:#ffb1a0;fill-opacity:1;fill-rule:nonzero;stroke:none"
             id="path4714" /></g><g
           id="g4716"
           transform="translate(489.0449,203.3237)"><path
             d="m 0,0 c -7.74,11.732 -23.643,14.652 -35.056,6.61 l -64.046,-45.124 c -2.855,-2.012 -6.338,-2.928 -9.814,-2.582 l -46.868,4.667 c -0.332,0.033 -0.354,0.518 -0.024,0.57 11.699,1.861 21.253,11.216 22.752,23.519 1.772,14.538 -8.378,27.85 -22.927,30.074 L -266.1,34.571 c -12.454,1.905 -25.165,-1.08 -35.448,-8.325 l -58.84,-41.457 -3.241,-11.639 58.333,-83.534 h 12.318 c 23.761,13.597 50.82,20.692 78.405,20.356 11.153,-0.136 87.912,-1.071 99.225,-1.209 17.035,-0.424 33.751,4.641 47.658,14.438 l 60.797,42.836 C 4.072,-26.237 7.372,-11.175 0,0"
             style="fill:#ffdecf;fill-opacity:1;fill-rule:nonzero;stroke:none"
             id="path4718" /></g><g
           id="g4720"
           transform="translate(182.8349,170.8359)"><path
             d="m 0,0 c -2.493,3.57 -3.261,8.068 -2.093,12.264 0.904,3.242 2.9,6.072 5.651,8.01 l 54.586,38.459 c 2.425,1.709 4.99,3.172 7.651,4.399 L 40.11,67.059 C 27.656,68.963 14.945,65.979 4.662,58.733 L -54.178,17.277 -57.419,5.638 0.914,-77.896 h 12.318 c 10.025,5.736 20.64,10.3 31.63,13.652 z"
             style="fill:#ffcebe;fill-opacity:1;fill-rule:nonzero;stroke:none"
             id="path4722" /></g><g
           id="g4724"
           transform="translate(202.9677,83.1973)"><path
             d="m 0,0 -81.48,115.037 c -3.553,5.016 -10.551,6.165 -15.633,2.566 l -23.769,-16.836 V 90.565 l 86.33,-119.334 8.015,-3.665 23.769,16.836 C 2.313,-12 3.553,-5.016 0,0"
             style="fill:#dbedff;fill-opacity:1;fill-rule:nonzero;stroke:none"
             id="path4726" /></g><g
           id="g4728"
           transform="translate(133.4033,181.4111)"><path
             d="m 0,0 -11.916,16.823 c -3.553,5.016 -10.551,6.165 -15.633,2.566 L -51.317,2.553 V -7.649 l 13.727,-18.976 z"
             style="fill:#b5dcff;fill-opacity:1;fill-rule:nonzero;stroke:none"
             id="path4730" /></g><g
           id="g4732"
           transform="translate(82.0859,183.9643)"><path
             d="m 0,0 -58.011,-41.089 c -5.183,-3.671 -6.505,-10.713 -2.952,-15.728 l 81.481,-115.037 c 3.552,-5.016 10.633,-6.106 15.816,-2.436 l 58.011,41.089 z"
             style="fill:#7fb3fa;fill-opacity:1;fill-rule:nonzero;stroke:none"
             id="path4734" /></g><g
           id="g4736"
           transform="translate(66.8838,120.6572)"><path
             d="M 0,0 C -3.553,5.016 -1.596,12.508 4.371,16.734 L 33.551,37.402 15.202,63.307 -42.809,22.218 C -47.992,18.547 -49.313,11.505 -45.761,6.49 L 35.72,-108.547 c 3.552,-5.016 10.634,-6.106 15.816,-2.435 l 18.027,12.768 z"
             style="fill:#64a6f4;fill-opacity:1;fill-rule:nonzero;stroke:none"
             id="path4738" /></g><g
           id="g4740"
           transform="translate(263.3652,326.1084)"><path
             d="M 0,0 H 31.467"
             style="fill:none;stroke:#000000;stroke-width:15;stroke-linecap:round;stroke-linejoin:round;stroke-miterlimit:10;stroke-dasharray:none;stroke-opacity:1"
             id="path4742" /></g><g
           id="g4744"
           transform="translate(263.3652,351.209)"><path
             d="M 0,0 H 31.467"
             style="fill:none;stroke:#000000;stroke-width:15;stroke-linecap:round;stroke-linejoin:round;stroke-miterlimit:10;stroke-dasharray:none;stroke-opacity:1"
             id="path4746" /></g><g
           id="g4748"
           transform="translate(304.541,377.6226)"><path
             d="m 0,0 h -50.885 c -7.209,0 -13.053,-5.844 -13.053,-13.053 v -51.822 c 0,-7.208 5.844,-13.052 13.053,-13.052 H 0 c 7.209,0 13.053,5.844 13.053,13.052 v 51.822 C 13.053,-5.844 7.209,0 0,0 Z"
             style="fill:none;stroke:#000000;stroke-width:15;stroke-linecap:round;stroke-linejoin:round;stroke-miterlimit:10;stroke-dasharray:none;stroke-opacity:1"
             id="path4750" /></g><g
           id="g4752"
           transform="translate(82.0215,183.9643)"><path
             d="m 0,0 -58.011,-41.089 c -5.182,-3.671 -6.504,-10.713 -2.951,-15.728 l 81.481,-115.037 c 3.552,-5.016 10.633,-6.106 15.816,-2.436 l 58.011,41.089 z"
             style="fill:none;stroke:#000000;stroke-width:15;stroke-linecap:round;stroke-linejoin:round;stroke-miterlimit:10;stroke-dasharray:none;stroke-opacity:1"
             id="path4754" /></g><g
           id="g4756"
           transform="translate(202.9043,83.1973)"><path
             d="m 0,0 -81.48,115.037 c -3.553,5.016 -10.552,6.165 -15.633,2.566 l -23.77,-16.836 94.346,-133.201 23.769,16.836 C 2.313,-12 3.553,-5.016 0,0 Z"
             style="fill:none;stroke:#000000;stroke-width:15;stroke-linecap:round;stroke-linejoin:round;stroke-miterlimit:10;stroke-dasharray:none;stroke-opacity:1"
             id="path4758" /></g><g
           id="g4760"
           transform="translate(380.0566,162.228)"><path
             d="m 0,0 c 3.479,-0.346 6.969,0.57 9.823,2.581 l 64.046,45.125 c 3.96,2.79 8.46,4.257 12.972,4.498 0.213,8.442 -3.439,18.155 -10.483,23.192 -11.19,8.001 -26.649,5.277 -34.529,-6.085 L -3.36,4.15 C -4.308,2.785 -5.486,1.632 -6.805,0.678 Z"
             style="fill:none;stroke:#000000;stroke-width:15;stroke-linecap:round;stroke-linejoin:round;stroke-miterlimit:10;stroke-dasharray:none;stroke-opacity:1"
             id="path4762" /></g><g
           id="g4764"
           transform="translate(339.3759,166.2788)"><path
             d="M 0,0 -51.646,4.125"
             style="fill:none;stroke:#000000;stroke-width:15;stroke-linecap:round;stroke-linejoin:round;stroke-miterlimit:10;stroke-dasharray:none;stroke-opacity:1"
             id="path4766" /></g><g
           id="g4768"
           transform="translate(488.9804,203.3237)"><path
             d="m 0,0 c -7.739,11.732 -23.642,14.652 -35.055,6.61 l -64.046,-45.124 c -2.855,-2.012 -6.338,-2.928 -9.814,-2.582 l -49.637,4.942 c 12.921,0.73 23.882,10.562 25.496,23.814 1.773,14.538 -8.377,27.85 -22.926,30.074 l -110.117,16.837 c -12.454,1.905 -25.165,-1.08 -35.448,-8.325 l -58.841,-41.457 67.411,-95.173 c 23.761,13.597 50.819,20.692 78.405,20.356 11.152,-0.136 87.912,-1.071 99.225,-1.209 17.035,-0.424 33.751,4.641 47.657,14.438 l 60.798,42.836 C 4.073,-26.237 7.373,-11.175 0,0 Z"
             style="fill:none;stroke:#000000;stroke-width:15;stroke-linecap:round;stroke-linejoin:round;stroke-miterlimit:10;stroke-dasharray:none;stroke-opacity:1"
             id="path4770" /></g><g
           id="g4772"
           transform="translate(344.5986,272.9053)"><path
             d="m 0,0 h 84.211 c 7.746,0 14.086,6.339 14.086,14.086 v 203.422 c 0,7.747 -6.34,14.085 -14.086,14.085 h -203.422 c -7.747,0 -14.086,-6.338 -14.086,-14.085 V 14.086 C -133.297,6.339 -126.958,0 -119.211,0 H -35"
             style="fill:none;stroke:#000000;stroke-width:15;stroke-linecap:round;stroke-linejoin:round;stroke-miterlimit:10;stroke-dasharray:none;stroke-opacity:1"
             id="path4774" /></g><g
           id="g4776"
           transform="translate(355.2627,478.8179)"><path
             d="m 0,0 v 25.681 h -56.329 v -89.18 c 0,-3.917 4.349,-6.267 7.625,-4.123 l 17.842,11.676 c 1.639,1.072 3.757,1.072 5.395,0 L -7.624,-67.622 C -4.348,-69.766 0,-67.416 0,-63.499 V -35"
             style="fill:none;stroke:#000000;stroke-width:15;stroke-linecap:round;stroke-linejoin:round;stroke-miterlimit:10;stroke-dasharray:none;stroke-opacity:1"
             id="path4778" /></g></g></g></g></svg>
