<svg id="Layer_1" viewBox="0 0 128 128" xmlns="http://www.w3.org/2000/svg" data-name="Layer 1"><path d="m64.005 24.032h48.598v21.986h-48.598z" fill="#e1ebf4"/><path d="m113.51 46.06v21.99h-5.56a10.13729 10.13729 0 0 0 -.41-2 9.64308 9.64308 0 0 0 -.88-2 9.99323 9.99323 0 0 0 -8.66-5h-33.09v-12.99z" fill="#ffdb80"/><path d="m29.952 68.10278a9.94287 9.94287 0 0 1 6.048-2.05298h10a9.94253 9.94253 0 0 1 6.048 2.053 9.91271 9.91271 0 0 1 .91046-3.29541v-28.60408h-26.9587v24.38489a10.98619 10.98619 0 0 1 3.95224 7.51458z" fill="#e1ebf4"/><g fill="#81d9e3"><path d="m52.3703 66.3819c-.01807.06421-.03021.13074-.04706.19543.0166-.06482.02924-.1311.04706-.19543z"/><path d="m29.73547 66.73145c.02094.097.04889.19147.06726.28943-.01843-.09803-.04626-.19233-.06726-.28943z"/><path d="m52.17444 67.21643c-.05505.2912-.09808.58655-.1264.88635.02831-.29968.07214-.59485.1264-.88635z"/><path d="m29.45282 65.68054c.03094.09583.06732.18909.09564.286-.02846-.09691-.06457-.19023-.09564-.286z"/><path d="m19 21.96265-5.47717 6.42322v31.13842a10.91591 10.91591 0 0 1 12.47705 1.064l-.00012-.00012v-24.38486h26.95874v28.60406l-.00018.00043a10.00064 10.00064 0 0 1 9.04168-5.758h2.005v-38.7098z"/><path d="m52.63049 65.585-.00482.0141z"/><path d="m29.08606 64.70557c.03442.07983.07269.15765.10529.23846-.03272-.08081-.07068-.15863-.10529-.23846z"/><path d="m26.80414 61.32611-.02423-.02448z"/><path d="m27.48029 62.07587c.018.02191.03625.04352.05408.06555z"/><path d="m28.63391 63.78033c.03308.06036.06842.1192.10034.18018-.0321-.06097-.06714-.11987-.10034-.18018z"/><path d="m28.098 62.90265c.0274.04053.05579.08026.0827.12115-.02701-.04089-.05521-.08062-.0827-.12115z"/></g><path d="m40.06 92.03c-1.62 3.1-13.54 1.73-13.54 1.73l.6 5.58 7.86 9.16 2.69 15.79-5.23 1.14-4.43-13.24-9.11-5.28-2.14 5.92-10.81 12.85-4.88-3.39 7.77-13.24.4-23.9.9-2.11a3.09141 3.09141 0 0 1 1.29-2.04 10.94466 10.94466 0 0 0 3.71 2.33 10.75462 10.75462 0 0 0 3.86.71 2.08818 2.08818 0 0 0 .25-.01 10.78712 10.78712 0 0 0 5.45-1.6 6.30157 6.30157 0 0 1 1.3 1.42c2.73 4.18 13 2.68 13 2.68s2.68 2.4 1.06 5.5z" fill="#fc785e"/><path d="m19 62.05a7.01415 7.01415 0 0 0 -7 7v3.99a7 7 0 0 0 14 0v-3.99a7.00771 7.00771 0 0 0 -7-7zm3 10.99a3 3 0 0 1 -6 0v-3.99a3 3 0 0 1 6 0z" fill="#2d4356"/><path d="m22 69.05v3.99a3 3 0 0 1 -6 0v-3.99a3 3 0 0 1 6 0z" fill="#e1ebf4"/><path d="m31.00409 50.56293a1.99835 1.99835 0 1 0 0 3.9967h1.99991a1.99835 1.99835 0 1 0 0-3.9967z" fill="#2d4356"/><path d="m128 100.02a1.10079 1.10079 0 0 0 -.02-.18v-6.1a14.18961 14.18961 0 0 0 -4.23-10.08 16.06874 16.06874 0 0 0 -11.34-4.62h-8.41v-9.99a6.00476 6.00476 0 0 0 -6-6h-36a6.00476 6.00476 0 0 0 -6 6v47.96a6.00264 6.00264 0 0 0 6 5.99h3.3a6.99572 6.99572 0 0 0 13.41 0h28.59a6.99572 6.99572 0 0 0 13.41 0h1.12a6.0434 6.0434 0 0 0 6.17-5.9l-.02-16.9a1.10152 1.10152 0 0 0 .02-.18zm-56 23.98a2.995 2.995 0 1 1 3-2.99 3.00026 3.00026 0 0 1 -3 2.99zm28-4.99h-21.29a6.99572 6.99572 0 0 0 -13.41 0h-3.3a2.00591 2.00591 0 0 1 -2-2v-7h40zm0-12.99h-40v-36.97a2.00591 2.00591 0 0 1 2-2h36a2.00591 2.00591 0 0 1 2 2zm4-22.98h8.41a12.07422 12.07422 0 0 1 8.51 3.44 10.26794 10.26794 0 0 1 3.06 7.26v4.28h-19.98zm10 40.96a2.995 2.995 0 1 1 3-2.99 3.00026 3.00026 0 0 1 -3 2.99zm7.83-4.99h-1.12a6.99572 6.99572 0 0 0 -13.41 0h-3.3v-16.99h19.98l.02 15.09a2.06024 2.06024 0 0 1 -2.17 1.9z" fill="#2d4356"/><path d="m123.98 93.74v4.28h-19.98v-14.98h8.41a12.07422 12.07422 0 0 1 8.51 3.44 10.26794 10.26794 0 0 1 3.06 7.26z" fill="#e1ebf4"/><path d="m124 117.11a2.06024 2.06024 0 0 1 -2.17 1.9h-1.12a6.99572 6.99572 0 0 0 -13.41 0h-3.3v-16.99h19.98z" fill="#9387a2"/><path d="m117 121.01a3 3 0 1 1 -3-3 3.00026 3.00026 0 0 1 3 3z" fill="#d68751"/><path d="m75 121.01a3 3 0 1 1 -3-3 2.99389 2.99389 0 0 1 3 3z" fill="#d68751"/><path d="m100 110.01v9h-21.29a6.99572 6.99572 0 0 0 -13.41 0h-3.3a2.00591 2.00591 0 0 1 -2-2v-7z" fill="#9387a2"/><path d="m100 69.05v36.97h-40v-36.97a2.00591 2.00591 0 0 1 2-2h36a2.00591 2.00591 0 0 1 2 2z" fill="#e1ebf4"/><path d="m126 66.05h-10v-36.84c4.12-2.1 7-6.8 7-10.87a2.02969 2.02969 0 0 0 -2.02-2 5.266 5.266 0 0 1 -3.26-1.48c-1.43-1.41-2.16-3.71-2.17-6.82a8.05787 8.05787 0 0 0 -8-8.04h-87.09a8.05138 8.05138 0 0 0 -8 8.04c-.04 7.99-4.9 8.29-5.45 8.3a2.03914 2.03914 0 0 0 -2 2c0 4.07 2.87 8.77 6.99 10.87v31.37a10.97046 10.97046 0 0 1 4-2.1v-28.18c.17.01.34.03.5.03a12.02483 12.02483 0 0 0 9.5-4.37 12.05451 12.05451 0 0 0 9.5 4.37 12.02483 12.02483 0 0 0 9.5-4.37 12.05451 12.05451 0 0 0 9.5 4.37 12.42351 12.42351 0 0 0 7.5-2.44v31.17h4v-11h46v17.99h-4.46a9.90658 9.90658 0 0 1 .46 3v1h18a2 2 0 0 0 0-4zm-7.34-45.71c-.97 3.01-3.92 5.99-7.16 5.99-4.13 0-7.5-2.68994-7.5-5.99zm-102.16 5.99c-3.24 0-6.18-2.98-7.15-5.99h14.65c0 3.3-3.36 5.99-7.5 5.99zm19 0c-4.13 0-7.5-2.68994-7.5-5.99h15c0 3.3-3.36 5.99-7.5 5.99zm19 0c-4.13 0-7.5-2.68994-7.5-5.99h15c0 3.3-3.36 5.99-7.5 5.99zm-40.28-9.99a14.36866 14.36866 0 0 0 2.24-8.29 4.04191 4.04191 0 0 1 4-4.05h87.09a4.055 4.055 0 0 1 4 4.05 14.2195 14.2195 0 0 0 2.24 8.29zm85.78 4c0 3.3-3.36 5.99-7.5 5.99-4.13 0-7.5-2.68994-7.5-5.99zm-19 0c0 3.3-3.36 5.99-7.5 5.99-4.13 0-7.5-2.68994-7.5-5.99zm31 23.73h-46v-16.18a12.46765 12.46765 0 0 0 7.5 2.44 12.03965 12.03965 0 0 0 9.5-4.37 12.5111 12.5111 0 0 0 19 0 12.03965 12.03965 0 0 0 9.5 4.37c.17 0 .33-.02.5-.03z" fill="#2d4356"/><path d="m118.66 20.34c-.97 3.01-3.92 5.99-7.16 5.99-4.13 0-7.5-2.68994-7.5-5.99z" fill="#ffdb80"/><path d="m100 20.34c0 3.3-3.36 5.99-7.5 5.99-4.13 0-7.5-2.68994-7.5-5.99z" fill="#fc785e"/><path d="m81 20.34c0 3.3-3.36 5.99-7.5 5.99-4.13 0-7.5-2.68994-7.5-5.99z" fill="#ffdb80"/><path d="m62 20.34c0 3.3-3.36 5.99-7.5 5.99-4.13 0-7.5-2.68994-7.5-5.99z" fill="#fc785e"/><path d="m43 20.34c0 3.3-3.36 5.99-7.5 5.99-4.13 0-7.5-2.68994-7.5-5.99z" fill="#ffdb80"/><path d="m24 20.34c0 3.3-3.36 5.99-7.5 5.99-3.24 0-6.18-2.98-7.15-5.99z" fill="#fc785e"/><path d="m113.79 16.34h-99.57a14.36866 14.36866 0 0 0 2.24-8.29 4.04191 4.04191 0 0 1 4-4.05h87.09a4.055 4.055 0 0 1 4 4.05 14.2195 14.2195 0 0 0 2.24 8.29z" fill="#fc785e"/><path d="m8.00507 70.04706v-.99915a10.93141 10.93141 0 0 1 .42645-2.99762h-6.42621a1.99838 1.99838 0 1 0 0 3.99677z" fill="#2d4356"/><path d="m46 70.05h-10a6.00908 6.00908 0 0 0 -6 5.99v8h-1.84a12.26242 12.26242 0 0 0 -1.62994-3 11.02 11.02 0 0 1 -3.36 2.17 8.54363 8.54363 0 0 1 1.1 1.84 2.055 2.055 0 0 0 -.27.98 1.99943 1.99943 0 0 0 2 2h11.15994a2.007 2.007 0 0 1 0 4h-14.21a.997.997 0 0 1 -.89-.54l-3.28-6.37a1.997 1.997 0 0 0 -3.55 1.83l3.27 6.37a4.99108 4.99108 0 0 0 4.45 2.71h2.07c.03 4.76.13 4.89.49 5.3a1.1975 1.1975 0 0 0 .11.12006l7.72 7.59a2.085 2.085 0 0 1 .37994.86l2.24006 12.31994c.00995.1.02.19.02.28a1.49773 1.49773 0 0 1 -.47 1.09 1.47354 1.47354 0 0 1 -1.13.41 1.7027 1.7027 0 0 1 -1.42-1.3l-3.22-11.3a2.17216 2.17216 0 0 0 -.82-1.07l-8.98-5.94a2.09312 2.09312 0 0 0 -1.13-.33 2.05985 2.05985 0 0 0 -.7.12 2.129 2.129 0 0 0 -1.28 1.34l-1.96 6.49-8.39 11.13a1.40773 1.40773 0 0 1 -2.24-1.7c.02-.04.04-.07.06-.11l6.41-11.27a2.08592 2.08592 0 0 0 .29-1.06v-23.37a5.54119 5.54119 0 0 1 1.47-3.76 10.8907 10.8907 0 0 1 -2.73-2.93 9.54355 9.54355 0 0 0 -2.73 6.69v22.86l-6.16 10.82a5.42525 5.42525 0 0 0 1.17 7.14 5.32733 5.32733 0 0 0 3.39 1.19 5.417 5.417 0 0 0 4.21-2.02l8.64-11.46a2.50376 2.50376 0 0 0 .29-.5.97571.97571 0 0 0 .05-.16l1.31-4.33 6.2 4.1 3 10.52a5.67357 5.67357 0 0 0 5.03 4.2c.11.01.23.01.34.01a5.41826 5.41826 0 0 0 3.77-1.5 5.517 5.517 0 0 0 1.73-4 5.69335 5.69335 0 0 0 -.09-.99l-2.24-12.31a5.93016 5.93016 0 0 0 -1.29-2.78 1.73543 1.73543 0 0 0 -.13-.15l-7.22-7.09v-3.15h16.99a6.00476 6.00476 0 0 0 6-6v-13.99a6.00264 6.00264 0 0 0 -6-5.99zm2 19.98a1.99943 1.99943 0 0 1 -2 2h-3.34a6.04184 6.04184 0 0 0 .34-2 5.91871 5.91871 0 0 0 -5.84-5.99h-3.16v-8a2.00591 2.00591 0 0 1 2-2h10a1.99947 1.99947 0 0 1 2 2z" fill="#2d4356"/><path d="m48 76.04v13.99a1.99943 1.99943 0 0 1 -2 2h-3.34a6.04184 6.04184 0 0 0 .34-2 5.91871 5.91871 0 0 0 -5.84-5.99h-3.16v-8a2.00591 2.00591 0 0 1 2-2h10a1.99947 1.99947 0 0 1 2 2z" fill="#d68751"/><path d="m27.00427 61.52856v-21.45715a2.00142 2.00142 0 0 1 1.99994-1.99835h19.99915a2.00141 2.00141 0 0 1 1.99988 1.99835v25.97888h-4.9917a9.943 9.943 0 0 1 6.0365 2.05249 9.9701 9.9701 0 0 1 2.95508-6.17493v-21.85644a6.004 6.004 0 0 0 -5.99976-5.99512h-19.99915a6.004 6.004 0 0 0 -5.99976 5.99512v18.7367a11.019 11.019 0 0 1 3.99982 2.72045z" fill="#2d4356"/><path d="m112 64.05v2h-4.46a9.64308 9.64308 0 0 0 -.88-2z" fill="#ad9359" opacity=".45"/><path d="m39 90.03a1.9254 1.9254 0 0 1 -1.84 2h-14.21a.997.997 0 0 1 -.89-.54l-3.28-6.37a1.99185 1.99185 0 0 0 -2.69-.86 1.85244 1.85244 0 0 0 -.81.78l-.05-.09a1.95976 1.95976 0 0 1 -.09-1.62 10.75462 10.75462 0 0 0 3.86.71 2.08818 2.08818 0 0 0 .25-.01l2.81 5.46a.997.997 0 0 0 .89.54h14.21a1.80047 1.80047 0 0 0 1.59-1 2.08857 2.08857 0 0 1 .25 1z" fill="#a54b3f" opacity=".5"/><path d="m35.98 122.49981a1.49773 1.49773 0 0 1 -.47 1.09 1.47354 1.47354 0 0 1 -1.13.41 1.7027 1.7027 0 0 1 -1.42-1.3l-3.22-11.3a2.17216 2.17216 0 0 0 -.82-1.07l-8.98-5.93994a2.09312 2.09312 0 0 0 -1.13-.33 2.05985 2.05985 0 0 0 -.7.12 2.129 2.129 0 0 0 -1.28 1.34l-1.96 6.49005-8.39 11.13a1.40773 1.40773 0 0 1 -2.24-1.7c.02-.04.04-.07.06-.11l.08-.14a1.05615 1.05615 0 0 0 .15.15 1.43172 1.43172 0 0 0 1.95-.2l8.39-11.13 1.96-6.49005a2.129 2.129 0 0 1 1.28-1.34 2.05985 2.05985 0 0 1 .7-.12 2.09312 2.09312 0 0 1 1.13.33l8.98 5.93994a2.17216 2.17216 0 0 1 .82 1.07l3.22 11.3a1.7027 1.7027 0 0 0 1.42 1.3 1.47354 1.47354 0 0 0 1.13-.41 1.30832 1.30832 0 0 0 .27-.36l.18.99c.01.10001.02.18997.02.28z" fill="#a54b3f" opacity=".5"/><path d="m22 69.0498v2a3 3 0 0 0 -6 0v-2a3 3 0 0 1 6 0z" fill="#fff" opacity=".5"/><path d="m22 71.03979v2a3 3 0 0 1 -6 0v-2a3 3 0 0 0 6 0z" fill="#9fa5aa" opacity=".5"/><path d="m123.98 93.7398v2a10.26794 10.26794 0 0 0 -3.06-7.26 12.07422 12.07422 0 0 0 -8.51-3.44h-8.41v-2h8.41a12.07422 12.07422 0 0 1 8.51 3.44 10.26794 10.26794 0 0 1 3.06 7.26z" fill="#fff" opacity=".5"/><path d="m104 96.02h19.98v2h-19.98z" fill="#9fa5aa" opacity=".5"/><path d="m104 102.02h19.98v2h-19.98z" fill="#dccef2" opacity=".2"/><path d="m60 104.02h40v2h-40z" fill="#9fa5aa" opacity=".5"/><path d="m104 117.00982h4.27a6.74954 6.74954 0 0 0 -.97 2h-3.3z" fill="#5f5968" opacity=".5"/><path d="m124 115.15978v1.95a2.06024 2.06024 0 0 1 -2.17 1.9h-1.12a6.74954 6.74954 0 0 0 -.97-2h2.09a2.06858 2.06858 0 0 0 2.17-1.85z" fill="#5f5968" opacity=".5"/><path d="m117 121.00982a3 3 0 0 1 -6 0 2.77187 2.77187 0 0 1 .18-1 2.99311 2.99311 0 0 0 5.64 0 2.77187 2.77187 0 0 1 .18 1z" fill="#72492d" opacity=".4"/><path d="m75 121.00982a3 3 0 0 1 -6 0 2.77187 2.77187 0 0 1 .18-1 2.99311 2.99311 0 0 0 5.64 0 2.77187 2.77187 0 0 1 .18 1z" fill="#72492d" opacity=".4"/><path d="m62 117.00982h4.27a6.74954 6.74954 0 0 0 -.97 2h-3.3a2.00591 2.00591 0 0 1 -2-2v-2a2.00591 2.00591 0 0 0 2 2z" fill="#5f5968" opacity=".5"/><path d="m100 117.00982v2h-21.29a6.74954 6.74954 0 0 0 -.97-2z" fill="#5f5968" opacity=".5"/><path d="m100 69.0498v2a2.00591 2.00591 0 0 0 -2-2h-36a2.00591 2.00591 0 0 0 -2 2v-2a2.00591 2.00591 0 0 1 2-2h36a2.00591 2.00591 0 0 1 2 2z" fill="#fff" opacity=".5"/><path d="m113.79 16.33978h-1.09a15.98151 15.98151 0 0 1 -1.15-6.29 4.055 4.055 0 0 0 -4-4.05h-87.09a4.04191 4.04191 0 0 0 -4 4.05 16.16284 16.16284 0 0 1 -1.15 6.29h-1.09a14.36866 14.36866 0 0 0 2.24-8.28998 4.04191 4.04191 0 0 1 4-4.05h87.09a4.055 4.055 0 0 1 4 4.05 14.2195 14.2195 0 0 0 2.24 8.28998z" fill="#f9dbd7" opacity=".3"/><path d="m118.66 20.33978c-.97 3.01-3.92 5.99-7.16 5.99-4.13 0-7.5-2.68994-7.5-5.99h.44c1.03 2.32 3.81 3.99 7.06 3.99 2.51 0 4.84-1.78 6.21-3.99z" fill="#ad9359" opacity=".45"/><path d="m100 20.33978c0 3.3-3.36 5.99-7.5 5.99-4.13 0-7.5-2.68994-7.5-5.99h.44c1.03 2.32 3.81 3.99 7.06 3.99 3.26 0 6.04-1.67 7.06-3.99z" fill="#a54b3f" opacity=".5"/><path d="m81 20.33978c0 3.3-3.36 5.99-7.5 5.99-4.13 0-7.5-2.68994-7.5-5.99h.44c1.03 2.32 3.81 3.99 7.06 3.99 3.26 0 6.04-1.67 7.06-3.99z" fill="#ad9359" opacity=".45"/><path d="m62 20.33978c0 3.3-3.36 5.99-7.5 5.99-4.13 0-7.5-2.68994-7.5-5.99h.44c1.03 2.32 3.81 3.99 7.06 3.99 3.26 0 6.04-1.67 7.06-3.99z" fill="#a54b3f" opacity=".5"/><path d="m43 20.33978c0 3.3-3.36 5.99-7.5 5.99-4.13 0-7.5-2.68994-7.5-5.99h.44c1.03 2.32 3.81 3.99 7.06 3.99 3.26 0 6.04-1.67 7.06-3.99z" fill="#ad9359" opacity=".45"/><path d="m24 20.33978c0 3.3-3.36 5.99-7.5 5.99-3.24 0-6.18-2.98-7.15-5.99h.95c1.37 2.21 3.69 3.99 6.2 3.99 3.26 0 6.04-1.67 7.06-3.99z" fill="#a54b3f" opacity=".5"/><path d="m66 48.06h46v2h-46z" fill="#f9edd2" opacity=".5"/><path d="m66 42.07h46v2h-46z" fill="#9fa5aa" opacity=".5"/><path d="m48 76.03979v2a1.99947 1.99947 0 0 0 -2-2h-10a2.00591 2.00591 0 0 0 -2 2v-2a2.00591 2.00591 0 0 1 2-2h10a1.99947 1.99947 0 0 1 2 2z" fill="#e5d0c3" opacity=".3"/><path d="m48 88.02978v2a1.99943 1.99943 0 0 1 -2 2h-3.34a6.04184 6.04184 0 0 0 .34-2h3a1.99943 1.99943 0 0 0 2-2z" fill="#72492d" opacity=".4"/><path d="m51 40.06982v2a1.99943 1.99943 0 0 0 -2-2h-20a2.00587 2.00587 0 0 0 -2 2v-2a2.00587 2.00587 0 0 1 2-2h20a1.99943 1.99943 0 0 1 2 2z" fill="#fff" opacity=".5"/></svg>